Coordinates
version=1
nRows=29
nColumns=24
inDegrees=yes

Units are S.I. units (second, meters, Newtons, ...)
Angles are in degrees.

endheader
time	pelvis_tilt	pelvis_list	pelvis_rotation	pelvis_tx	pelvis_ty	pelvis_tz	hip_flexion_r	hip_adduction_r	hip_rotation_r	knee_angle_r	ankle_angle_r	subtalar_angle_r	mtp_angle_r	hip_flexion_l	hip_adduction_l	hip_rotation_l	knee_angle_l	ankle_angle_l	subtalar_angle_l	mtp_angle_l	lumbar_extension	lumbar_bending	lumbar_rotation
      1.10833333	     -1.71514368	     -4.89001502	     -2.72836661	     -0.21367896	      1.00759457	      0.33042179	    -11.89704618	      9.85281525	      4.33866916	     -7.78835182	     15.17884881	     -1.97936559	      4.36483541	     22.03439615	     -4.67368789	     -3.72570136	      7.23899376	      2.13265297	     -4.26568260	     -3.64511365	     -0.94609166	      3.36622118	      9.46670359
      1.11250000	     -1.71524981	     -4.75618370	     -2.82053878	     -0.20813953	      1.00687097	      0.33019671	    -11.96981992	      9.66613417	      4.23805354	     -8.32712800	     15.48171639	     -1.77476750	      4.28411043	     22.07231399	     -4.49101555	     -3.51449061	      6.92893615	      2.18886271	     -4.28327303	     -3.42790057	     -0.94208512	      3.21105413	      9.54622129
      1.11666667	     -1.69942232	     -4.60646101	     -2.90423895	     -0.20254692	      1.00621812	      0.32999295	    -12.08460793	      9.47609072	      4.28256748	     -8.81032137	     15.63995886	     -1.86107923	      4.27317921	     22.09876639	     -4.29272801	     -3.29786352	      6.54109169	      2.25447760	     -4.31490941	     -3.37776053	     -0.95086910	      3.03421818	      9.56497255
      1.12083333	     -1.71269164	     -4.44931900	     -2.99734551	     -0.19695654	      1.00553584	      0.32974391	    -12.09134307	      9.26281339	      4.14653188	     -9.45883554	     15.99179962	     -1.51849859	      4.20846179	     22.17138716	     -4.08741341	     -3.09044308	      6.07131145	      2.24629999	     -4.41593105	     -3.07875359	     -0.91448202	      2.84659588	      9.68934138
      1.12500000	     -1.67004400	     -4.26323542	     -3.07571100	     -0.19131268	      1.00496587	      0.32949904	    -12.16583580	      9.02475071	      4.06402922	    -10.08738647	     16.26356534	     -1.33674907	      4.10287850	     22.18743426	     -3.84761543	     -2.89915491	      5.54621390	      2.18955049	     -4.55546018	     -2.53865038	     -0.94637194	      2.61617535	      9.73818624
      1.12916667	     -1.62394929	     -4.07311256	     -3.12995542	     -0.18562434	      1.00443215	      0.32924719	    -12.26587222	      8.80377204	      4.10801457	    -10.66216671	     16.34543006	     -1.50405215	      4.09393175	     22.21963137	     -3.59836923	     -2.71848593	      4.93930163	      2.17212519	     -4.63145318	     -2.46824836	     -0.97605514	      2.38371809	      9.75227383
      1.13333333	     -1.57467597	     -3.87310920	     -3.18919638	     -0.17991978	      1.00393303	      0.32899225	    -12.34102060	      8.57111456	      4.13476342	    -11.29622568	     16.44609075	     -1.61664839	      4.08836050	     22.25614403	     -3.34012129	     -2.56009311	      4.28244098	      2.09255004	     -4.75847894	     -2.38087210	     -1.00296040	      2.13127800	      9.78078739
      1.13750000	     -1.53279780	     -3.67445641	     -3.23857899	     -0.17418110	      1.00343765	      0.32869657	    -12.37182458	      8.33417405	      4.07237290	    -12.01150699	     16.63422419	     -1.48710225	      3.83620607	     22.29108638	     -3.07828220	     -2.32796008	      3.63421914	      1.75725633	     -5.15234617	      1.64104604	     -1.01803180	      1.87803226	      9.80335360
      1.14166667	     -1.46171260	     -3.45487805	     -3.28495589	     -0.16840696	      1.00303786	      0.32841056	    -12.43512357	      8.08528618	      4.08704380	    -12.71520954	     16.67538129	     -1.62140021	      3.84291966	     22.32104303	     -2.79496065	     -2.21645404	      2.88986006	      1.60355269	     -5.29233086	      1.65585386	     -1.04995395	      1.58758000	      9.84915647
      1.14583333	     -1.40939231	     -3.21456578	     -3.32812955	     -0.16258899	      1.00263048	      0.32810109	    -12.45217129	      7.81280088	      4.07023157	    -13.47658370	     16.76059375	     -1.62142035	      3.87330081	     22.35616840	     -2.48725972	     -2.03553909	      2.16334923	      1.30945725	     -5.62647580	      1.72185178	     -1.06935991	      1.27442354	      9.92195554
      1.15000000	     -1.33074228	     -2.99484825	     -3.36099238	     -0.15677290	      1.00229176	      0.32775467	    -12.47004289	      7.56116414	      4.00722331	    -14.28673148	     16.78547843	     -1.64440183	      3.93923802	     22.36081789	     -2.19341572	     -1.80732701	      1.43151722	      0.94902323	     -6.11158458	      1.86538749	     -1.11865876	      1.02528295	      9.95565131
      1.15416667	     -1.25459913	     -2.75874302	     -3.38480629	     -0.15090841	      1.00198822	      0.32739839	    -12.48100556	      7.30050854	      3.98980251	    -15.10309385	     16.74485390	     -1.75473972	      4.03371240	     22.37165232	     -1.88085570	     -1.60913602	      0.68178170	      0.56326315	     -6.55441060	      2.04665983	     -1.15515040	      0.72951038	      9.96449697
      1.15833333	     -1.15803397	     -2.51161256	     -3.39823592	     -0.14500162	      1.00175295	      0.32703557	    -12.50181837	      7.03307899	      3.96924486	    -15.93939785	     16.63915061	     -1.93718910	      4.06758535	     22.38090725	     -1.55837439	     -1.52575211	     -0.12511998	      0.28220949	     -6.77676408	      2.10240699	     -1.19656437	      0.39604676	      9.96566685
      1.16250000	     -1.08821662	     -2.26837935	     -3.40022142	     -0.13909681	      1.00150864	      0.32661557	    -12.45800283	      6.76562141	      3.89259086	    -16.84450651	     16.54732903	     -1.96327660	      4.27090218	     22.37909396	     -1.22463899	     -1.18811144	     -0.84475249	     -0.24907529	     -7.51007183	      2.37357084	     -1.23584267	      0.10245778	      9.97852935
      1.16666667	     -1.01659949	     -2.01852331	     -3.41806951	     -0.13316306	      1.00132227	      0.32620571	    -12.39471121	      6.48981491	      3.84141540	    -17.78756714	     16.38410624	     -2.05805869	      4.48152913	     22.39064981	     -0.89640300	     -1.03913849	     -1.60332858	     -0.76297082	     -7.98788821	      2.60435631	     -1.26244025	     -0.19397912	      9.96086981
      1.17083333	     -0.89566995	     -1.75906623	     -3.41126661	     -0.12719065	      1.00123720	      0.32577128	    -12.37844405	      6.20563364	      3.75469495	    -18.73035003	     16.12554543	     -2.23148544	      4.53065331	     22.37446034	     -0.55599217	     -0.99614395	     -2.42927057	     -1.06195998	     -8.18347372	      2.65081308	     -1.32416460	     -0.53144685	      9.95321821
      1.17500000	     -0.82507831	     -1.49623189	     -3.40321878	     -0.12122679	      1.00111752	      0.32528005	    -12.25653425	      5.90839376	      3.61124953	    -19.77672273	     15.92824233	     -2.17738801	      4.82986210	     22.35736698	     -0.19726557	     -0.69500979	     -3.12879182	     -1.68880677	     -8.93157927	      2.86802457	     -1.35714281	     -0.84362192	      9.91575593
      1.17916667	     -0.72245260	     -1.21340292	     -3.38877097	     -0.11519849	      1.00110078	      0.32481359	    -12.16964942	      5.59482973	      3.48754123	    -20.80537195	     15.55360398	     -2.29228833	      4.97352425	     22.33312874	      0.16812534	     -0.61981937	     -3.90503436	     -2.04691908	     -9.16364879	      2.95458688	     -1.40560769	     -1.22730358	      9.88941279
      1.18333333	     -0.63682428	     -0.95638954	     -3.36153096	     -0.10921637	      1.00108157	      0.32424423	    -12.01064397	      5.28993805	      3.25250603	    -21.93422157	     15.27025686	     -2.20506510	      5.39871970	     22.31432315	      0.52562409	     -0.39543698	     -4.64857607	     -2.57072018	     -9.79862092	      3.15471556	     -1.44010785	     -1.50954195	      9.82302559
      1.18750000	     -0.49965803	     -0.68876666	     -3.33257240	     -0.10318141	      1.00119917	      0.32371704	    -11.91239926	      4.97857143	      3.05950198	    -23.03113148	     14.76356427	     -2.31384942	      5.48973032	     22.26032656	      0.87709592	     -0.38610744	     -5.45540716	     -2.80451288	     -9.94717546	      3.19057608	     -1.51764818	     -1.85374680	      9.80932767
      1.19166667	     -0.40902522	     -0.40560750	     -3.29785909	     -0.09714765	      1.00127746	      0.32312151	    -11.71536588	      4.63184721	      2.78236020	    -24.20438198	     14.17973512	     -2.30313716	     10.18173275	     22.21432777	      1.25936079	     -0.18754360	     -6.16727133	     -3.26357334	    -10.46390585	      4.54391790	     -1.55736414	     -2.19293996	      9.73340493
      1.19583333	     -0.26440200	     -0.11971613	     -3.25831203	     -0.09110610	      1.00147697	      0.32250958	    -11.55263066	      4.26725275	      2.45767607	    -25.42328079	     13.67802895	     -2.15938117	     10.25312757	     22.12739108	      1.63656117	     -0.15204471	     -6.92807857	     -3.52891520	    -10.65946134	      4.52864308	     -1.66942466	     -2.54166630	      9.65483968
      1.20000000	     -0.12917345	      0.16236450	     -3.21703006	     -0.08504460	      1.00171402	      0.32190126	    -11.36266541	      3.90486728	      2.13858876	    -26.65357209	     13.01304028	     -2.12385613	     10.31035488	     22.03729787	      2.00730667	     -0.10896450	     -7.67540311	     -3.70190972	    -10.80822632	      4.51630903	     -1.74803313	     -2.88864985	      9.60829745
      1.20416667	     -0.00606352	      0.43481397	     -3.16154428	     -0.07901346	      1.00195766	      0.32120562	    -11.11919015	      3.52777635	      1.73555338	    -27.95040625	     12.38706519	     -1.86368028	     10.78981781	     21.95002859	      2.38336298	      0.02354924	     -8.40509234	     -3.91712737	    -11.19000349	      4.43224490	     -1.83822731	     -3.21606914	      9.45541912
      1.20833333	      0.12705573	      0.71335613	     -3.09837588	     -0.07295217	      1.00225304	      0.32052554	    -10.87560272	      3.14414576	      1.33092319	    -29.24408129	     11.59561463	     -1.83517680	     10.88922248	     21.84983925	      2.75281792	      0.03081249	     -9.13808282	     -4.01006509	    -11.23721290	      4.41210855	     -1.91072212	     -3.53835584	      9.41634734
      1.21250000	      0.28466063	      0.96923697	     -3.03141138	     -0.06693000	      1.00262881	      0.31981884	    -10.63336103	      2.76786907	      0.89869673	    -30.56164879	     10.74175149	     -1.74256057	     10.96444828	     21.72640615	      3.10000066	      0.01490120	     -9.88903956	     -4.03684371	    -11.33890810	      4.39643719	     -2.02991913	     -3.84600029	      9.36688608
      1.21666667	      0.39946924	      1.25217941	     -2.95660120	     -0.06088243	      1.00296304	      0.31903322	    -10.30771179	      2.32919421	      0.37926908	    -31.92509332	      9.75849621	     -1.53932523	     16.03053846	     21.60391824	      3.48812103	      0.10287426	    -10.54849763	     -4.08777631	    -11.48730482	      3.37749132	     -2.10102910	     -4.16852750	      9.14550380
      1.22083333	      0.56201679	      1.51284010	     -2.87636527	     -0.05486289	      1.00340647	      0.31826583	    -10.02465057	      1.91292071	     -0.11950895	    -33.28750443	      8.74558528	     -1.41539444	     16.04291346	     21.42909200	      3.84738245	      0.12460622	    -11.21878164	     -4.00252392	    -11.50903164	      3.37730728	     -2.22530162	     -4.47289392	      9.08701067
      1.22500000	      0.70436475	      1.76632270	     -2.78975132	     -0.04885814	      1.00384563	      0.31746317	     -9.69326063	      1.48633822	     -0.64731402	    -34.67774406	      7.66396301	     -1.26712989	     16.08512865	     21.26040138	      4.20020029	      0.14111542	    -11.86174520	     -3.90429835	    -11.52244724	      3.36893045	     -2.33235359	     -4.76378141	      8.98160000
